/* XPM */
static char *_42ea1fb4b67428de32d7599a243db69oFRf9gDyHTuKbviF[] = {
/* columns rows colors chars-per-pixel */
"16 16 77 1 ",
"  c None",
". c #642081",
"X c #652081",
"o c #642181",
"O c #652182",
"+ c #652183",
"@ c #652282",
"# c #652283",
"$ c #662383",
"% c #672383",
"& c #662483",
"* c #672385",
"= c #672584",
"- c #672485",
"; c #682585",
": c #692886",
"> c #6A2987",
", c #6A2988",
"< c #6B2A8A",
"1 c #6D2D8A",
"2 c #733792",
"3 c #763B94",
"4 c #783F97",
"5 c #793F98",
"6 c #7A4298",
"7 c #79409A",
"8 c #7A429A",
"9 c #7B439A",
"0 c #7B429B",
"q c #7A439B",
"w c #7B439B",
"e c #7D439A",
"r c #7C429B",
"t c #7D429B",
"y c #7C439B",
"u c #7D439B",
"i c #7A449B",
"p c #7B449B",
"a c #7C449B",
"s c #7D449B",
"d c #7D459B",
"f c #7B439C",
"g c #7C439C",
"h c #7A449C",
"j c #7B449C",
"k c #7C449C",
"l c #7D449C",
"z c #7D459C",
"x c #7C449D",
"c c #7D449E",
"v c #804A9F",
"b c #834FA1",
"n c #8A58A6",
"m c #8B5BA7",
"M c #9366AD",
"N c #A883BD",
"B c #A884BD",
"V c #AA87BF",
"C c #AB88BF",
"Z c #AC89C0",
"A c #AD8AC1",
"S c #B18FC4",
"D c #BB9ECC",
"F c #C1A6CE",
"G c #C2A8D0",
"H c #C7B0D5",
"J c #CAB4D7",
"K c #CBB5D8",
"L c #CDB8D9",
"P c #E0D2E7",
"I c #E4D9EB",
"U c #E7DDED",
"Y c #EDE5F1",
"T c #EEE6F1",
"R c #EEE7F2",
"E c #EEE7F3",
"W c #FAF7FA",
/* pixels */
"     wg  xg     ",
"   f        w   ",
"  w  wwwwwt  g  ",
"    ,wwpwwpf  x ",
"   +FIvawwDNf   ",
"g ==LTHawwKSwt a",
"t +>LZUBwwKSwf p",
"  +;LZmEnwKSww t",
"  .+CnaBPwKSww t",
"x +.2pawJGKSwf a",
"p +.=6wwbTTSp  x",
"   ..*4wwMWSf   ",
" h  +++134aw  w ",
"  f  ,;++;   f  ",
"            w   ",
"     aaaaxg     "
};
