/* XPM */
static char *nebulaproject64__1_1674209118[] = {
/* columns rows colors chars-per-pixel */
"64 65 231 2 ",
"   c None",
".  c #642081",
"X  c #642181",
"o  c #652181",
"O  c #652182",
"+  c #652282",
"@  c #662282",
"#  c #662283",
"$  c #672283",
"%  c #662383",
"&  c #662483",
"*  c #662384",
"=  c #662484",
"-  c #672484",
";  c #672584",
":  c #672485",
">  c #672685",
",  c #682585",
"<  c #682685",
"1  c #692685",
"2  c #682686",
"3  c #692786",
"4  c #692886",
"5  c #682986",
"6  c #682887",
"7  c #6A2987",
"8  c #692989",
"9  c #6A2989",
"0  c #692A88",
"q  c #6B2A88",
"w  c #6B2B88",
"e  c #6A2A89",
"r  c #6B2A89",
"t  c #6B2B89",
"y  c #6C2B89",
"u  c #6B2C88",
"i  c #6B2C8A",
"p  c #6C2D8A",
"a  c #6D2D8A",
"s  c #6C2C8B",
"d  c #6D2E8B",
"f  c #6E2E8B",
"g  c #6D2D8C",
"h  c #6D2E8D",
"j  c #6E2F8C",
"k  c #6E2F8D",
"l  c #6E2F8E",
"z  c #6E308C",
"x  c #6F308D",
"c  c #6E318D",
"v  c #6F318D",
"b  c #6F328D",
"n  c #6F318E",
"m  c #6F328F",
"M  c #70308E",
"N  c #70318F",
"B  c #70328E",
"V  c #71328E",
"C  c #70338F",
"Z  c #71338F",
"A  c #71348F",
"S  c #70358F",
"D  c #713490",
"F  c #703590",
"G  c #713590",
"H  c #723590",
"J  c #723591",
"K  c #733591",
"L  c #723691",
"P  c #723692",
"I  c #733893",
"U  c #753990",
"Y  c #743892",
"T  c #743993",
"R  c #753993",
"E  c #753A93",
"W  c #763B95",
"Q  c #763C95",
"!  c #773D95",
"~  c #773C96",
"^  c #773E97",
"/  c #783E97",
"(  c #783F97",
")  c #793F97",
"_  c #793E98",
"`  c #783F98",
"'  c #793F98",
"]  c #7A3F99",
"[  c #794099",
"{  c #7A4099",
"}  c #7A4199",
"|  c #7A4299",
" . c #7B4299",
".. c #7B419A",
"X. c #79429B",
"o. c #7A429A",
"O. c #7B429A",
"+. c #7A439A",
"@. c #7B439A",
"#. c #7A429B",
"$. c #7B429B",
"%. c #7A439B",
"&. c #7B439B",
"*. c #7C429A",
"=. c #7C439A",
"-. c #7C429B",
";. c #7C439B",
":. c #7D439B",
">. c #79449A",
",. c #79449B",
"<. c #7A449A",
"1. c #7B449A",
"2. c #7A449B",
"3. c #7B449B",
"4. c #7C4499",
"5. c #7C449A",
"6. c #7C449B",
"7. c #7A429C",
"8. c #7B429C",
"9. c #7A439C",
"0. c #7B439C",
"q. c #7C429C",
"w. c #7C439C",
"e. c #7D439C",
"r. c #7C429D",
"t. c #7C439D",
"y. c #7A449C",
"u. c #7B449C",
"i. c #7C449C",
"p. c #7D449C",
"a. c #7C459C",
"s. c #7D459C",
"d. c #7C449D",
"f. c #7D449D",
"g. c #7D469C",
"h. c #7E489D",
"j. c #7E489E",
"k. c #7F489E",
"l. c #804A9F",
"z. c #804B9F",
"x. c #814B9F",
"c. c #834EA1",
"v. c #824FA1",
"b. c #8450A2",
"n. c #8551A2",
"m. c #8653A3",
"M. c #8654A3",
"N. c #8B5AA6",
"B. c #8B5AA7",
"V. c #8B5BA8",
"C. c #8C5CA8",
"Z. c #8E5FAA",
"A. c #9162AB",
"S. c #9568AE",
"D. c #9569AF",
"F. c #966AAF",
"G. c #976BB0",
"H. c #9B71B3",
"J. c #9B72B4",
"K. c #9C72B4",
"L. c #9D72B4",
"P. c #9E76B5",
"I. c #9D75B6",
"U. c #A17AB8",
"Y. c #A27CB9",
"T. c #A37DB9",
"R. c #A57FBB",
"E. c #A883BD",
"W. c #AA86BE",
"Q. c #AE8CC1",
"!. c #AE8CC2",
"~. c #AF8DC3",
"^. c #B08EC3",
"/. c #B495C7",
"(. c #B496C7",
"). c #B596C7",
"_. c #B798C8",
"`. c #B99ACA",
"'. c #B89BCA",
"]. c #BA9CC8",
"[. c #BC9ECB",
"{. c #BC9FCB",
"}. c #BB9ECC",
"|. c #BCA0CC",
" X c #BFA4CE",
".X c #C2A8D1",
"XX c #C3AAD2",
"oX c #C4AAD2",
"OX c #C6AFD4",
"+X c #C8B1D5",
"@X c #CBB5D8",
"#X c #CCB7D9",
"$X c #CDB8D9",
"%X c #D0BCDC",
"&X c #D0BDDC",
"*X c #D1BDDC",
"=X c #D2BFDD",
"-X c #D3C1DE",
";X c #D5C4DF",
":X c #D6C4E0",
">X c #D7C6E1",
",X c #D9C9E3",
"<X c #DACAE3",
"1X c #DBCCE4",
"2X c #DCCDE5",
"3X c #DFD1E7",
"4X c #E0D2E7",
"5X c #E2D5E8",
"6X c #E3D7EA",
"7X c #E7DBEC",
"8X c #E9E0EE",
"9X c #ECE4F1",
"0X c #EEE7F2",
"qX c #EFE9F3",
"wX c #F1EBF4",
"eX c #F2ECF5",
"rX c #F4EEF6",
"tX c #F4EFF6",
"yX c #F4F0F7",
"uX c #F7F3F9",
"iX c #F7F4F9",
"pX c #F8F4F9",
"aX c #F9F7FA",
"sX c #FCFAFD",
"dX c #FCFBFD",
"fX c #FDFBFD",
"gX c #FDFCFD",
"hX c #FDFDFE",
"jX c #FEFDFE",
"kX c #FEFEFE",
"lX c white",
/* pixels */
"                                                    0.&.&.&.&.&.&.&.&.&.=.&.                                                    ",
"                                            &.&.&.&.&.&.&.&.&.&.&.&.&.&.&.&.&.&.&.0.                                            ",
"                                        w.&.&.&.u.w.0.                  u.0.&.=.0.&.&.&.                                        ",
"                                  =.&.&.&.&.&.                                    =.&.w.&.&.                                    ",
"                                0.&.&.&.i.                                            =.6.2.&.&.                                ",
"                            &.&.=.w.                                                      i.2.&.&.&.                            ",
"                          &.&.&.6.                                                            0.&.&.&.                          ",
"                      &.&.&.2.                                                                    &.&.&.                        ",
"                    &.&.&.&.                      &.&.&.&.&.&.&.0.&.&.&.&.&.                        &.&.2.                      ",
"                  &.&.&.2.                  ' &.&.&.&.&.&.&.&.&.&.&.&.&.&.&.&.&.=.                    &.&.&.                    ",
"                &.&.2.                  ! Z I &.&.&.&.&.&.&.&.&.&.&.&.&.&.&.&.&.&.&.u.                  =.0.&.                  ",
"                &.&.                &.v # W &.&.&.&.&.&.&.&.&.&.&.&.&.&.&.&.&.&.&.&.&.0.w.                w.&.&.                ",
"              &.&.                W : . Z &.&.&.&.&.&.&.&.&.&.&.&.&.&.&.&.&.&.&.&.&.&.&.&.&.                &.&.&.              ",
"            =.0.=.              G . . f &.&.&.&.&.&.&.&.&.&.&.&.&.&.&.&.&.&.&.&.&.&.&.&.&.&.&.0.              0.&.=.            ",
"          0.&.&.              f . . . &.&.&.&.&.&.&.&.&.&.&.&.&.&.&.&.&.&.&.&.&.&.&.&.&.&.&.&.&.i.              &.&.            ",
"          &.&.              f . . . Y &.&.&.&.&.&.&.&.&.&.&.&.&.&.&.&.&.&.&.&.&.&.&.&.&.&.&.&.&.&.=.            6.&.&.          ",
"        =.&.i.            l . . . Y K.K.K.K.N.&.&.&.&.&.&.&.&.&.&.&.&.&.&.&.&.&.w.=.i.D.J.D.&.&.&.&.              &.&.&.        ",
"        w.i.            G . . . & ].lXlXlXlX1X6.&.&.&.&.&.&.&.&.&.&.&.&.&.&.&.&.&.6.;XdXlX<X&.&.&.&.&.              &.&.        ",
"      2.&.              . . . . 5 oXlXlXlXlXlX{.&.&.&.&.&.&.&.&.&.&.&.&.&.&.&.&.&.K.lXlXlX<X&.&.&.&.&.&.            &.&.&.      ",
"      &.&.            e . . . . A oXlXlXlXlXlXiXU.&.&.&.&.&.&.&.&.&.&.&.&.&.&.&.=.R.lXlXlX<X&.&.&.&.&.&.0.            &.0.      ",
"    &.&.=.          A . . . . . ' XXlXlXlXlXlXlX9XM.w.&.&.&.&.&.&.&.&.&.&.&.&.&.0.R.lXlXlX<X&.&.&.&.&.&.&.            &.&.&.    ",
"    &.&.            : . . . . 5 &.XXlXlXlXlXlXlXlX*Xx.&.&.&.&.&.&.&.&.&.&.&.&.&.&.R.lXlXlX<X&.&.&.&.&.&.&.              &.=.    ",
"  &.&.&.          v . . . . . Z &.XXlXlXlX*XdXlXlXlX).&.&.&.&.&.&.&.&.&.&.&.&.&.&.R.lXlXlX<X&.&.&.&.&.&.&.=.            &.&.    ",
"  &.0.            e . . . . . Y &.XXlXlXlX|.Q.lXlXlXdXS.&.&.&.&.&.&.&.&.&.&.&.&.&.R.lXlXlX<X&.&.&.&.&.&.&.&.            &.&.&.  ",
"  2.=.            . . . . . . W &.XXlXlXlX|.i.-XlXlXlX8Xc.&.&.&.&.&.&.&.&.&.&.&.&.R.lXlXlX<X&.&.&.&.&.&.&.&.&.            &.0.  ",
"  &.&.          l . . . . . : &.&.XXlXlXlX|.&.V.9XlXlXlX*X6.&.&.&.&.&.&.&.&.&.&.&.R.lXlXlX<X&.&.&.&.&.&.&.&.&.            &.&.  ",
"0.&.&.          5 . . . . . . &.&.XXlXlXlX|.&.&.K.aXlXlXlXQ.&.&.&.&.&.&.&.&.&.&.&.R.lXlXlX<X&.&.&.&.&.&.&.&.&.            &.&.  ",
"&.&.            : . . . . . 1 2.&.XXlXlXlX|.&.&.&. XlXlXlXiXZ.&.&.&.&.&.&.&.&.&.&.R.lXlXlX<X&.&.&.&.&.&.&.&.&.            =.&.  ",
"&.&.            . . . . . . & =.&.XXlXlXlX|.&.&.&.k.4XlXlXlX7Xm.&.&.&.&.&.&.&.&.&.R.lXlXlX<X&.&.&.&.&.&.&.&.&.w.          0.&.6.",
"&.&.            . . . . . . . &.&.XXlXlXlX|.&.&.&.&.B.rXlXlXlXOX&.&.&.&.&.&.&.&.&.R.lXlXlX<X&.&.&.&.&.&.&.&.&.0.          i.&.&.",
"&.&.            . . . . . . : [ &.XXlXlXlX|.&.&.&.&.&.Y.lXlXlXlXP.&.&.&.&.&.&.&.&.R.lXlXlX<X&.&.&.&.&.&.&.&.&.0.          i.&.=.",
"&.&.          y . . . . . . . ! &.XXlXlXlX|.&.&.&.&.&.2.OXlXlXlX8XM.&.&.&.&.&.&.&.R.lXlXlX<X&.&.&.&.&.&.&.&.&.w.            &.0.",
"&.&.          f . . . . . . . G &.XXlXlXlX}.&.&.&.&.&.&.v.3XlXlXlX>Xk.&.&.&.&.&.&.R.lXlXlX<X&.&.&.&.&.&.&.&.&.&.            &.2.",
"&.&.            . . . . . . . v &.XXlXlXlXP.&.&.&.&.&.&.&.C.yXlXlXlX).&.&.&.&.&.&.R.lXlXlX<X&.&.&.&.&.&.&.&.&.&.            &.=.",
"2.&.            . . . . . . . 1 &.Q.>X*XQ.w.&.&.&.&.&.&.&.&.W.aXlXlXdXJ.&.&.&.&.&.R.lXlXlX<X&.&.&.&.&.&.&.&.&.&.          &.&.&.",
"&.&.            . . . . . . . . ! 0.&.&.&.0.&.&.&.&.&.&.&.&.u.$XlXlXlXqXm.&.&.&.&.R.lXlXlX<X&.&.&.&.&.&.&.&.&.6.          &.&.&.",
"&.&.            : . . . . . . . Z &.&.&.&.&.&.&.&.&.&.&.&.&.&.i.wXlXlXlX$X&.&.&.&.R.lXlXlX<X&.&.&.&.&.&.&.&.0.&.          i.&.  ",
"&.&.0.          : . . . . . . . : &.&.&.&.&.&.&.&.&.&.&.&.&.&.&.J.dXlXlXlX'.&.&.&.R.lXlXlX<X&.&.&.&.&.&.&.&.=.            &.&.  ",
"  &.&.          5 . . . . . . . X G &.&.&.&.&.&.&.&.&.&.&.&.&.&.=.'.lXlXlXrXG.&.&.R.lXlXlX<X&.&.&.&.&.&.&.&.&.            =.&.  ",
"  &.=.            . . . . . . . X . &.&.&.&.&.&.&.&.&.&.&.&.&.&.0.i.<XlXlXlX6Xm.&.R.lXlXlX<X&.&.&.&.&.&.&.&.2.            0.=.  ",
"  6.&.            # . . . . . . . . D &.&.&.&.&.&.&.&.&.&.&.&.&.&.&.N.wXlXlXlXXX6.R.lXlXlX<X&.&.&.&.&.&.&.&.            =.&.0.  ",
"  w.0.w.          e . . . . . . . . X ` &.&.&.&.&.&.&.&.&.&.&.&.&.&.0.U.lXlXlXlXE.R.lXlXlX<X&.&.&.&.&.&.&.0.            0.&.    ",
"    &.=.            X . . . . . . . . 1 &.&.&.&.&.&.&.&.&.&.&.&.&.&.&.&.[.lXlXlXuX).lXlXlX<X&.&.&.&.&.&.&.2.            &.&.    ",
"    =.0.            e X . . . . . . . . e &.&.&.&.&.&.&.&.&.&.&.&.&.&.&.x.2XlXlXlXuXlXlXlX<X&.&.&.&.&.&.6.            w.&.2.    ",
"    2.&.2.            . . . . . . . . . . z 2.=.&.&.&.&.&.&.&.&.&.&.&.&.&.A.rXlXlXlXlXlXlX<X&.&.&.&.&.&.=.            6.&.      ",
"      0.=.            f . . . . . . . . . . z &.&.&.&.&.&.&.&.&.&.&.&.&.&.&.U.lXlXlXlXlXlX<X&.&.&.&.&.=.              &.&.      ",
"      =.&.i.            & . . . . . . . . . . i &.&.&.&.&.&.&.&.&.&.&.&.&.&.w.@XlXlXlXlXlX<X&.&.&.&.&.              =.&.        ",
"        &.0.              : . . . . . . . . . . 1 ! &.&.&.&.&.&.&.&.&.&.&.&.&.v.5XlXlXlXlX<X&.&.&.&.w.            6.&.&.        ",
"        =.&.=.              . . . . . . . . . . . . Z ' =.0.&.&.&.&.&.&.&.&.&.&.A.$X$X$X$X).&.0.&.&.              i.&.          ",
"          2.0.              G 1 . . . . . . . . . . . : G &.&.&.&.&.&.&.&.&.&.&.&.&.&.6.&.&.&.=.=.              =.0.w.          ",
"            &.&.                1 . . . . . . . . . . . . . Z ! &.&.=.w.&.&.&.&.&.&.i.2.&.&.! /               0.0.=.            ",
"            0.w.&.                5 . . . . . . . . . . . . . . : f G W / / &.&.&.! Y G i 1 l                 =.&.w.            ",
"              =.&.&.                Z . . . . . . . . . . . . . . . . . . . . . . . . . e                   0.&.2.              ",
"                =.&.0.                  e . . . . . . . . . . . . . . . . . . . . . 1 Z                   0.&.&.                ",
"                  =.&.&.                    l . . . . . . . . . . . . . . . . . 5 Z                     0.&.0.                  ",
"                    &.&.i.                      G e 1 # . . . . . . . . 1 y D                         =.0.u.                    ",
"                      0.&.&.                              v v v G G I                               =.&.&.                      ",
"                        2.=.&.                                                                  0.&.0.w.                        ",
"                          &.&.&.&.                                                          2.2.&.&.&.                          ",
"                              &.&.&.&.                                                    &.&.&.&.                              ",
"                                0.=.0.&.&.                                          &.&.0.=.w.                                  ",
"                                    w.&.&.&.6.=.                              u.w.&.&.&.&.w.                                    ",
"                                        0.&.0.&.&.0.0.0.=.0.w.=.u.&.&.&.i.&.&.&.&.&.0.                                          ",
"                                              0.=.=.0.0.&.0.=.&.&.&.&.&.&.0.=.2.                                                ",
"                                                          0.u.0.i.w.w.                                                          "
};
