/* XPM */
static char *nebulaproject128__2_1674209118[] = {
/* columns rows colors chars-per-pixel */
"128 130 58 1 ",
"  c None",
". c #642081",
"X c #682685",
"o c #6A2887",
"O c #6C2C8A",
"+ c #6F318D",
"@ c #70328E",
"# c #6F3190",
"$ c #723591",
"% c #763B95",
"& c #783D97",
"* c #793F98",
"= c #7B439B",
"- c #7E489D",
"; c #804B9F",
": c #86519D",
"> c #824EA0",
", c #8552A3",
"< c #8956A5",
"1 c #8B5AA6",
"2 c #8E5EA9",
"3 c #9162AB",
"4 c #9568AF",
"5 c #976CB0",
"6 c #996EB2",
"7 c #9C73B4",
"8 c #A078B7",
"9 c #A27BB9",
"0 c #A681BB",
"q c #A984BD",
"w c #AA88BF",
"e c #AD8AC1",
"r c #B08FC3",
"t c #B391C5",
"y c #B798C8",
"u c #BA9CCA",
"i c #BDA1CD",
"p c #C0A7CF",
"a c #C1A6D0",
"s c #C5ACD3",
"d c #CAB3D6",
"f c #CBB6D8",
"g c #CFBCDB",
"h c #D2BFDD",
"j c #D4C2DE",
"k c #D6C4E0",
"l c #DACAE3",
"z c #DED1E6",
"x c #E1D5E9",
"c c #E5DAEB",
"v c #E8DFEE",
"b c #EDE5F1",
"n c #EFE8F3",
"m c #F3EEF6",
"M c #F4F0F7",
"N c #F7F3F8",
"B c #F9F6FA",
"V c #FFFFFF",
/* pixels */
"                                                       ==============;*=                                                        ",
"                                                 ;============================                                                  ",
"                                              ====================================                                              ",
"                                           ========================================*=                                           ",
"                                        -==================          ==================                                         ",
"                                      ==============                        ==============                                      ",
"                                    ============                                =;==========                                    ",
"                                  ===========                                      ===========                                  ",
"                                ==========                                           ==========                                 ",
"                              ==========                                                =========                               ",
"                             ========                                                     =========                             ",
"                           =========                                                        ========                            ",
"                          ========                                                            =======                           ",
"                         =======                                                               ========                         ",
"                        =======                                                                  =======                        ",
"                      =======                            ============                             =======                       ",
"                     =======                        =======================                        ======-                      ",
"                    =======                     ===============================                      ======                     ",
"                   ======                     ===================================                     ======                    ",
"                  ;=====                   ==$======================================                   ======                   ",
"                 ======                  ==++&========================================                  ======                  ",
"                ======                 =*O.X============================================                 ======                 ",
"               -=====                 *@X.o&=============================================                 ======                ",
"              ======                =%o..X&================================================                ======               ",
"              =====                =O...X%==================================================                ======              ",
"             =====               =%o....#====================================================                ======             ",
"            ======              =@.....O=======================================================               =====             ",
"            =====              =@.....o=========================================================               =====            ",
"           =====              =+.....X%==========================================================              ======           ",
"          =====              *O......+============================================================              =====           ",
"          =====             =O......X*=============================================================              =====          ",
"         =====             *O.......%===============================================================             =====          ",
"         ====             *+.......X================================================================              =====         ",
"        =====            =@.......O0iiiiiiiiq========================================<quiii7=========              ====         ",
"       =====             $........:nVVVVVVVVM0======================================7cBVVVVa==========             =====        ",
"       =====            &X........3MVVVVVVVVVb,====================================,nVVVVVVa===========             ====-       ",
"      =====            *o........O4MVVVVVVVVVVh;===================================uVVVVVVVa===========             =====       ",
"      =====            +.........@4MVVVVVVVVVVBu===================================gVVVVVVVa============             ====       ",
"     =====            %X........o=4MVVVVVVVVVVVM7==================================hVVVVVVVa=============            =====      ",
"     =====           &X.........+=4MVVVVVVVVVVVVc2=================================hVVVVVVVa=============             ====      ",
"     ====            $..........%=4MVVVVVVVVVVVVVs-================================hVVVVVVVa==============            =====     ",
"    =====           %X.........X*=4MVVVVVVVVVVVVVBu================================hVVVVVVVa==============            =====     ",
"    ====            +..........o==4MVVVVVVVVVVVVVVB7===============================hVVVVVVVa===============            =====    ",
"   =====           *X..........+==4MVVVVVVVVVVVVVVVx<==============================hVVVVVVVa===============            =====    ",
"   ====-           O...........&==4mVVVVVVNhBVVVVVVVh-=============================hVVVVVVVa===============-            ====    ",
"   ====           &X..........X*==4MVVVVVVm7xVVVVVVVN0=============================hVVVVVVVa================            ====-   ",
"   ====           +...........O===4MVVVVVVm35nVVVVVVVn1============================hVVVVVVVa=================           =====   ",
"  -====           o...........+===4MVVVVVVm2=eVVVVVVVVg,===========================hVVVVVVVa=================            ====   ",
"  ====           *............$===4MVVVVVVm3==jVVVVVVVVy===========================hVVVVVVVa=================            ====   ",
"  ====           $............$===4MVVVVVVM3==1xVVVVVVVN7==========================hVVVVVVVa==================           =====  ",
"  ====           O............&===4MVVVVVVm2===7MVVVVVVVx1=========================hVVVVVVVa==================           =====  ",
" =====          %X............&===4MVVVVVVm3====yBVVVVVVVf;========================hVVVVVVVa==================            ====  ",
" -===           $............X*===4MVVVVVVm3====;jVVVVVVVBt========================hVVVVVVVa==================            ====  ",
" ====           O.............====4MVVVVVVM3=====3cVVVVVVVM2=======================hVVVVVVVa===================           ===== ",
" ====           X............X====4MVVVVVVm3======7BVVVVVVVl,======================hVVVVVVVa===================           ===== ",
" ====           X.............====4MVVVVVVm2=======iVVVVVVVVd-=====================hVVVVVVVa===================           ===== ",
" ====          $.............X*===4MVVVVVVm3=======,lVVVVVVVN0=====================hVVVVVVVa===================           ===== ",
"=====          $.............X*===4MVVVVVVm3========4nVVVVVVVn3====================hVVVVVVVa===================            ==== ",
"=====          +.............X*===4MVVVVVVm3=========uVVVVVVVVh;===================hVVVVVVVa====================           ==== ",
"====           O..............&===4MVVVVVVm3==========jVVVVVVVVs===================hVVVVVVVa====================           ==== ",
"====           O..............%===4mVVVVVVm3==========4cVVVVVVVB7==================hVVVVVVVa====================           ==== ",
"====           O..............%===5mVVVVVVm3===========9BVVVVVVVc2=================hVVVVVVVa====================           ==== ",
"====           O..............O===4MVVVVVVm3============uBVVVVVVVk>================hVVVVVVVa====================           ==== ",
"====           O..............O===4MVVVVVVM3============>jVVVVVVVBi================hVVVVVVVa====================           ==== ",
"====           O..............O===4MVVVVVVM3=============2cVVVVVVVN9===============hVVVVVVVa====================           ==== ",
"====           O...............*==4MVVVVVVm1==============8NVVVVVVVx4==============hVVVVVVVa====================           ==== ",
"====           O...............%==4MVVVVVVx================sVVVVVVVVh==============hVVVVVVVa====================           ==== ",
"====           O...............+==4MVVVVVB0================>jVVVVVVVVu=============hVVVVVVVa====================           ==== ",
"====           O...............X==4nNBBNme>=================4nVVVVVVVn7============hVVVVVVVa====================           ==== ",
"=====          O................==,0eee91====================eNVVVVVVVc<===========hVVVVVVVa====================           ==== ",
"=====          O................&=============================fBVVVVVVVf>==========hVVVVVVVa===================            ==== ",
"=====          +................@=============================<zVVVVVVVB0==========hVVVVVVVa===================            ==== ",
" ====           ................o==============================3mVVVVVVVm5=========hVVVVVVVa===================            ==== ",
" ====           .................&==============================tVVVVVVVVl;========hVVVVVVVa===================           ===== ",
" ====           X................+==============================-fVVVVVVVVi========hVVVVVVVa===================           ===== ",
" ====           o.................===============================1cVVVVVVVN6=======hVVVVVVVa===================           ===== ",
" ====           O.................+===============================9BVVVVVVVl1======hVVVVVVVa==================            ====  ",
" =====           .................X%===============================uBVVVVVVVh======hVVVVVVVa==================            ====  ",
"  ====           O.................+===============================,hVVVVVVVVq=====hVVVVVVVa==================            ====  ",
"  ====           O..................&===============================<mVVVVVVVn4====hVVVVVVVa=================            =====  ",
"  ====            ..................+================================qNVVVVVVVl,===hVVVVVVVa=================            =====  ",
"  =====           O..................%================================pVVVVVVVVi===hVVVVVVVa=================            ====   ",
"  =====           $...................================================>lVVVVVVVB9==jVVVVVVVa================            =====   ",
"   ====            o..................O================================4vVVVVVVVv7=jVVVVVVVa================            =====   ",
"   =====           +...................+================================qNVVVVVVVz=jVVVVVVVa================            ====    ",
"   =====            ....................$================================uVVVVVVVVskVVVVVVVa===============            =====    ",
"    ====            +....................================================>zVVVVVVVmmVVVVVVVa===============            =====    ",
"    =====            X...................O================================4MVVVVVVVVVVVVVVVa==============             ====     ",
"     ====            +....................o================================iBVVVVVVVVVVVVVVa=============             =====     ",
"     =====            O....................O===============================>jVVVVVVVVVVVVVVa=============             ====      ",
"     =====            &X....................X===============================,nVVVVVVVVVVVVVa============             =====      ",
"      =====            +.....................X===============================0NVVVVVVVVVVVVa============             ;====      ",
"      =====             ......................X===============================iVVVVVVVVVVVVa===========             =====       ",
"       ====             +.......................$=============================,lVVVVVVVVVVVa==========              =====       ",
"       ====;             @.......................$=============================4mVVVVVVVVVVa=========              =====        ",
"        =====             +.......................o%============================qBVVVVVVVVVa=========              =====        ",
"        =====              +........................O*==========================;sNNNNNMNNNu========              =====         ",
"         =====              O........................X%==========================;7777777772=======              ======         ",
"          =====              O.........................O&=========================================               =====          ",
"          =====               O.........................XO%======================================               =====           ",
"           =====               +...........................O$===================================               ======           ",
"           ======               @............................oo@*===========================%+$                =====            ",
"            =====                $..............................XO@%*===================%@O.X#                =====             ",
"             =====                %o................................XoO@%%%%%*%*&%%$@oX....O&                ======             ",
"             ======                *OX......................................X............X+                 =====;              ",
"              ======                 %O.................................................o=                 ======               ",
"               ======                  $X............................................Xo%                  ======                ",
"                ======                  %$X.........................................o@                   ======                 ",
"                 ======                   =$o....................................XO%                    ======                  ",
"                  ======                    &$O................................X+%                     =======                  ",
"                   ======                      *+OX.........................o@%=                      =======                   ",
"                    ======                        *$OOX................Xo+%**                        =======                    ",
"                     =======                          *%$$@OOOOOo@@@$%**                            =======                     ",
"                      =======                                                                     =======                       ",
"                       =======                                                                   =======                        ",
"                         =======                                                               ========                         ",
"                          =======                                                             ========                          ",
"                           ========                                                         ========                            ",
"                             ========                                                     =========                             ",
"                              =========                                                 =========                               ",
"                                ==========                                            ==========                                ",
"                                 =;=========                                       ===========                                  ",
"                                   ============                                 ============                                    ",
"                                      =============                         ==============                                      ",
"                                        =================             ==================                                        ",
"                                          ============================================                                          ",
"                                              ====================================                                              ",
"                                                  ============================                                                  ",
"                                                      ===================                                                       ",
"                                                                                                                                "
};
