/* XPM */
static char *_7cd376c442d41cec56a1153572cd55ec08KqdJRGA0OZ5H3[] = {
/* columns rows colors chars-per-pixel */
"32 33 127 2 ",
"   c None",
".  c #642081",
"X  c #642181",
"o  c #652181",
"O  c #652182",
"+  c #652282",
"@  c #662383",
"#  c #662483",
"$  c #662484",
"%  c #672484",
"&  c #672584",
"*  c #672585",
"=  c #672586",
"-  c #672686",
";  c #682685",
":  c #692786",
">  c #692787",
",  c #6A2987",
"<  c #692888",
"1  c #6A2A88",
"2  c #6B2A88",
"3  c #6C2B88",
"4  c #6C2C89",
"5  c #6C2C8A",
"6  c #6D2E8B",
"7  c #6D2F8C",
"8  c #6D2F8D",
"9  c #6E2E8C",
"0  c #6E308C",
"q  c #6F318D",
"w  c #70328E",
"e  c #723590",
"r  c #733691",
"t  c #733791",
"y  c #743892",
"u  c #753993",
"i  c #753B95",
"p  c #763C95",
"a  c #773D96",
"s  c #783E97",
"d  c #783F98",
"f  c #793F98",
"g  c #7C4395",
"h  c #7A4299",
"j  c #7A429A",
"k  c #7A439A",
"l  c #7B439A",
"z  c #7A429B",
"x  c #7B429B",
"c  c #7A439B",
"v  c #7B439B",
"b  c #7C4399",
"n  c #7C439A",
"m  c #7C429B",
"M  c #7C439B",
"N  c #7D439B",
"B  c #7B449A",
"V  c #7A459A",
"C  c #7A449B",
"Z  c #7B449B",
"A  c #7C449A",
"S  c #7C449B",
"D  c #7B429C",
"F  c #7A439C",
"G  c #7B439C",
"H  c #7A439D",
"J  c #7C439C",
"K  c #7A449C",
"L  c #7B449C",
"P  c #7B449D",
"I  c #7C449C",
"U  c #7D449D",
"Y  c #7C459D",
"T  c #7E489D",
"R  c #824DA0",
"E  c #834FA1",
"W  c #8654A4",
"Q  c #8856A5",
"!  c #8957A6",
"~  c #8B5AA7",
"^  c #8D5CA8",
"/  c #8E5EA9",
"(  c #8E5FAA",
")  c #9061AB",
"_  c #9163AA",
"`  c #9164AC",
"'  c #9264AC",
"]  c #9467AE",
"[  c #966BB0",
"{  c #976BB0",
"}  c #986DB1",
"|  c #9B71B4",
" . c #9D75B5",
".. c #9E75B6",
"X. c #A37DBA",
"o. c #A47EBA",
"O. c #A884BD",
"+. c #AB87BF",
"@. c #B292C5",
"#. c #B799C8",
"$. c #B799C9",
"%. c #B99BC9",
"&. c #BA9CCB",
"*. c #C6ADD4",
"=. c #C7AFD5",
"-. c #CAB4D7",
";. c #CDB8DA",
":. c #D0BDDC",
">. c #D7C6E1",
",. c #DED0E7",
"<. c #DFD2E8",
"1. c #E0D3E7",
"2. c #E3D7E9",
"3. c #E4D9EA",
"4. c #E5DAEB",
"5. c #E8DEEE",
"6. c #E9DEEE",
"7. c #EAE0EF",
"8. c #EEE7F2",
"9. c #F3EDF6",
"0. c #F4EEF6",
"q. c #F4EFF6",
"w. c #F5F1F8",
"e. c #F7F3F8",
"r. c #F9F6FA",
"t. c #FAF7FB",
"y. c white",
/* pixels */
"                        v v M v v v v M                         ",
"                  Z A G               Z v v P                   ",
"              v Z A                         v v                 ",
"            v A                                 v v             ",
"          G G           v M v v v v v v           Z v           ",
"        M           5 Z v v v v v v v v v A         Z P         ",
"      M M       9 % s v v v v v v v v v v v v         A M       ",
"    Y v       5 . y Z v v v v v v v v v v v v v A       M       ",
"    v       5 . g ;.;.` Y v v v v v v v v &.=.v v         M     ",
"  P Z       . . ' y.y.7.R v v v v v v v ! y.9.v v M       M     ",
"  v       . . % { y.y.y.:.v v v v v v v ! y.9.v v v G       v   ",
"  M       . . , } y.5.8.y.#.v v v v v v ! y.9.v v v v       M   ",
"Z       : . . q } y.2.` r.r./ M v v v v ! y.9.v v v G       G   ",
"v       % . . w } y.2.v @.y.5.R v v v v ! y.9.v v v v A       Y ",
"M       . . . q } y.2.v v >.y.-.v v v v ! y.9.v v v v A       v ",
"v       . . . 9 } y.2.v v ~ 0.y.X.v v v ! y.9.v v v v v       v ",
"v       . . . < } y.,.v v v | r.w./ v v ! y.9.v v v v M       v ",
"v       . . . # R +.W v v v G #.y.,.v v ! y.9.v v v v Z       v ",
"v       . . . . e Z v v v v v v <.y.%.v ! y.9.v v v v M       P ",
"Y       , . . . % Z v v v v v v / 9.y. .! y.9.v v v v       Z v ",
"  v       . . . . e Y Z v v v v v +.y.w.` y.9.v v v v       v   ",
"  v       . . . . . p Z v v v v v v =.y.4.y.9.v v v M       M   ",
"  Y         . . . . # s Z v v v v v Y 4.y.y.9.v v v       G v   ",
"    G       : . . . . : e v v v v v A ) e.y.9.v v         v     ",
"    A P       # . . . . . 9 v v G A v Y { o. .v v       v G     ",
"      M         , . . . . . . 5 e p v Y v p e i         G       ",
"        v         < % . . . . . . . . . . %           M         ",
"          M           3 % # . . . . % <             v           ",
"            v                                   Z M             ",
"              G v                             Z Z               ",
"                  v v                     M v                   ",
"                      v M M Z G Z J A Y M                       ",
"                                                                "
};
